<svg width="11" height="18" viewBox="0 0 11 18" fill="none" xmlns="http://www.w3.org/2000/svg">
<path d="M0.425534 1.98113C0.193252 1.74892 0.0803444 1.44921 0.086451 1.15006C0.0925577 0.850902 0.216157 0.555137 0.458394 0.330825L0.476563 0.313896C0.715719 0.102331 1.02058 0.000254607 1.32337 0.00593125C1.62615 0.0116079 1.92837 0.125044 2.1577 0.3459C4.8049 2.86239 7.42327 5.41987 10.0538 7.95472C10.0643 7.96186 10.0733 7.96899 10.0823 7.97754C10.3146 8.20976 10.4275 8.5123 10.4214 8.81146C10.4153 9.11061 10.2902 9.40779 10.0479 9.6321L10.0071 9.66877C7.36199 12.1434 4.7199 14.6265 2.06733 17.0968C1.83567 17.3141 1.53378 17.4247 1.23095 17.4275C0.928115 17.4304 0.62435 17.3254 0.387458 17.1102L0.364973 17.0888C0.12964 16.8637 0.00917711 16.5682 0.00623719 16.2704C0.00329728 15.9726 0.119386 15.6726 0.354121 15.4426L7.5034 8.77364L0.425534 1.98113Z" fill="white"/>
</svg>
