<svg width="10" height="15" viewBox="0 0 10 15" fill="none" xmlns="http://www.w3.org/2000/svg">
<path d="M0.39999 1.6997C0.176981 1.50037 0.0684806 1.24319 0.0741789 0.986555C0.0798771 0.729916 0.198315 0.476238 0.43063 0.283918L0.448055 0.269404C0.67742 0.088018 0.969893 0.000591896 1.26043 0.00560649C1.55097 0.0106211 1.84101 0.108083 2.06118 0.297664C4.60264 2.45782 7.11643 4.65312 9.6419 6.82901C9.65199 6.83514 9.66063 6.84127 9.66926 6.84861C9.89227 7.04793 10.0008 7.30754 9.99506 7.56418C9.98936 7.82082 9.86947 8.0757 9.63716 8.26803L9.59796 8.29947C7.06126 10.4212 4.52741 12.5502 1.9835 14.6682C1.76134 14.8545 1.47172 14.9492 1.18114 14.9515C0.890566 14.9538 0.599035 14.8636 0.371612 14.6789L0.350026 14.6605C0.124093 14.4672 0.00834546 14.2137 0.00536393 13.9582C0.0023824 13.7028 0.113612 13.4454 0.338725 13.2482L7.19513 7.53034L0.39999 1.6997Z" fill="#05D4F5"/>
</svg>
