<svg width="66" height="66" viewBox="0 0 66 66" fill="none" xmlns="http://www.w3.org/2000/svg">
<circle cx="33" cy="33" r="32" stroke="#05D4F5" stroke-width="2"/>
<path d="M39.645 35.1667C39.3883 35.1667 39.12 35.085 38.8633 35.0267C38.3439 34.9105 37.8333 34.7585 37.335 34.5717C36.7937 34.3748 36.1988 34.385 35.6646 34.6004C35.1305 34.8157 34.6949 35.2211 34.4416 35.7383L34.185 36.275C33.0519 35.6324 32.0052 34.8483 31.07 33.9417C30.1633 33.0064 29.3792 31.9597 28.7366 30.8267L29.2733 30.5817C29.7905 30.3284 30.1959 29.8928 30.4112 29.3586C30.6266 28.8245 30.6369 28.2296 30.44 27.6883C30.2547 27.1855 30.1027 26.6711 29.985 26.1483C29.9266 25.8917 29.88 25.6233 29.845 25.3667C29.7033 24.5449 29.2729 23.8007 28.6312 23.2681C27.9895 22.7355 27.1788 22.4495 26.345 22.4617H22.8333C22.3401 22.461 21.8523 22.5646 21.4019 22.7657C20.9516 22.9667 20.5488 23.2607 20.22 23.6283C19.8843 24.0059 19.6344 24.4517 19.4874 24.935C19.3404 25.4184 19.2998 25.9278 19.3683 26.4283C20.0025 31.2842 22.221 35.7951 25.68 39.2617C29.1465 42.7206 33.6575 44.9391 38.5133 45.5733C38.6647 45.5849 38.8168 45.5849 38.9683 45.5733C39.8286 45.5746 40.6593 45.2589 41.3016 44.6867C41.6692 44.3579 41.9632 43.9551 42.1643 43.5047C42.3653 43.0543 42.4689 42.5665 42.4683 42.0733V38.5733C42.462 37.7672 42.1776 36.988 41.6632 36.3673C41.1488 35.7466 40.4359 35.3225 39.645 35.1667ZM40.2166 42.1667C40.2162 42.3295 40.1818 42.4904 40.1155 42.6391C40.0492 42.7878 39.9525 42.9209 39.8316 43.03C39.7038 43.1465 39.5516 43.2331 39.3861 43.2835C39.2207 43.334 39.0461 43.347 38.875 43.3217C34.5213 42.7531 30.4752 40.769 27.36 37.675C24.242 34.557 22.2407 30.4969 21.6666 26.125C21.6413 25.9539 21.6543 25.7793 21.7047 25.6138C21.7552 25.4484 21.8418 25.2962 21.9583 25.1683C22.0687 25.046 22.2037 24.9485 22.3545 24.8821C22.5054 24.8157 22.6685 24.7821 22.8333 24.7833H26.3333C26.603 24.7767 26.8666 24.8638 27.0793 25.0297C27.292 25.1956 27.4407 25.4301 27.5 25.6933C27.5 26.0083 27.605 26.335 27.675 26.65C27.8098 27.2612 27.9892 27.8617 28.2116 28.4467L26.5783 29.2167C26.2975 29.3455 26.0794 29.5805 25.9716 29.87C25.8549 30.154 25.8549 30.4726 25.9716 30.7567C27.6507 34.3532 30.5417 37.2443 34.1383 38.9233C34.4223 39.04 34.7409 39.04 35.025 38.9233C35.3145 38.8156 35.5494 38.5974 35.6783 38.3167L36.4133 36.6833C37.0152 36.9028 37.631 37.0821 38.2566 37.22C38.56 37.29 38.8866 37.3483 39.2016 37.395C39.4648 37.4543 39.6993 37.6029 39.8652 37.8156C40.0311 38.0283 40.1182 38.292 40.1116 38.5617L40.2166 42.1667ZM33.3333 22.3333C33.065 22.3333 32.785 22.3333 32.5166 22.3333C32.2072 22.3596 31.9209 22.5078 31.7207 22.7452C31.5205 22.9825 31.4228 23.2897 31.4491 23.5992C31.4754 23.9086 31.6236 24.1949 31.861 24.3951C32.0983 24.5953 32.4055 24.693 32.715 24.6667H33.3333C35.1898 24.6667 36.9703 25.4042 38.283 26.7169C39.5958 28.0297 40.3333 29.8101 40.3333 31.6667C40.3333 31.8767 40.3333 32.075 40.3333 32.285C40.3074 32.5928 40.4047 32.8982 40.6037 33.1344C40.8027 33.3706 41.0872 33.5183 41.395 33.545H41.4883C41.7803 33.5462 42.0622 33.4378 42.2782 33.2412C42.4942 33.0446 42.6287 32.7742 42.655 32.4833C42.655 32.215 42.655 31.935 42.655 31.6667C42.655 29.1933 41.6732 26.8211 39.9254 25.0711C38.1776 23.3211 35.8066 22.3364 33.3333 22.3333V22.3333ZM35.6666 31.6667C35.6666 31.9761 35.7895 32.2728 36.0083 32.4916C36.2271 32.7104 36.5239 32.8333 36.8333 32.8333C37.1427 32.8333 37.4395 32.7104 37.6582 32.4916C37.877 32.2728 38 31.9761 38 31.6667C38 30.429 37.5083 29.242 36.6331 28.3668C35.7579 27.4917 34.571 27 33.3333 27C33.0239 27 32.7271 27.1229 32.5083 27.3417C32.2895 27.5605 32.1666 27.8572 32.1666 28.1667C32.1666 28.4761 32.2895 28.7728 32.5083 28.9916C32.7271 29.2104 33.0239 29.3333 33.3333 29.3333C33.9521 29.3333 34.5456 29.5792 34.9832 30.0167C35.4208 30.4543 35.6666 31.0478 35.6666 31.6667Z" fill="#05D4F5"/>
</svg>
