<svg width="26" height="26" viewBox="0 0 26 26" fill="none" xmlns="http://www.w3.org/2000/svg">
<path d="M13 25.1875C10.5895 25.1875 8.23322 24.4727 6.22899 23.1335C4.22477 21.7944 2.66267 19.8909 1.74022 17.664C0.817781 15.437 0.576427 12.9865 1.04668 10.6223C1.51694 8.2582 2.67769 6.08659 4.38214 4.38214C6.08659 2.67769 8.2582 1.51694 10.6223 1.04668C12.9865 0.576427 15.437 0.817781 17.664 1.74022C19.8909 2.66267 21.7944 4.22477 23.1335 6.22899C24.4727 8.23322 25.1875 10.5895 25.1875 13C25.1875 16.2323 23.9035 19.3323 21.6179 21.6179C19.3323 23.9035 16.2323 25.1875 13 25.1875ZM13 2.43751C10.9109 2.43751 8.86879 3.05699 7.13179 4.21761C5.3948 5.37823 4.04098 7.02787 3.24153 8.95791C2.44208 10.888 2.2329 13.0117 2.64046 15.0606C3.04802 17.1096 4.054 18.9916 5.53119 20.4688C7.00838 21.946 8.89044 22.952 10.9394 23.3596C12.9883 23.7671 15.1121 23.5579 17.0421 22.7585C18.9721 21.959 20.6218 20.6052 21.7824 18.8682C22.943 17.1312 23.5625 15.0891 23.5625 13C23.5625 10.1987 22.4497 7.51204 20.4688 5.53119C18.488 3.55034 15.8014 2.43751 13 2.43751V2.43751Z" fill="#05D4F5"/>
<path d="M13.8125 13.8125H7.3125C7.09701 13.8125 6.89035 13.7269 6.73798 13.5745C6.5856 13.4222 6.5 13.2155 6.5 13C6.5 12.7845 6.5856 12.5778 6.73798 12.4255C6.89035 12.2731 7.09701 12.1875 7.3125 12.1875H12.1875V5.6875C12.1875 5.47201 12.2731 5.26535 12.4255 5.11298C12.5778 4.9606 12.7845 4.875 13 4.875V4.875C13.2155 4.875 13.4222 4.9606 13.5745 5.11298C13.7269 5.26535 13.8125 5.47201 13.8125 5.6875V13.8125Z" fill="#05D4F5"/>
</svg>
