<svg width="17" height="17" viewBox="0 0 17 17" fill="none" xmlns="http://www.w3.org/2000/svg">
<path d="M15.9622 0.623047H1.51586C1.27909 0.623047 1.05201 0.717105 0.884589 0.884528C0.717166 1.05195 0.623108 1.27903 0.623108 1.5158V15.9622C0.623108 16.0794 0.6462 16.1955 0.691065 16.3038C0.73593 16.4121 0.80169 16.5106 0.884589 16.5934C0.967489 16.6763 1.06591 16.7421 1.17422 16.787C1.28253 16.8318 1.39862 16.8549 1.51586 16.8549H9.29093V10.5651H7.18079V8.13029H9.29093V6.30421C9.24722 5.87549 9.29784 5.4424 9.43922 5.03531C9.58061 4.62822 9.80935 4.257 10.1094 3.94767C10.4094 3.63834 10.7735 3.39841 11.1761 3.24469C11.5787 3.09097 12.0101 3.02719 12.4399 3.05783C13.0716 3.05394 13.703 3.08646 14.3309 3.15522V5.34653H13.0405C12.0179 5.34653 11.8231 5.83348 11.8231 6.53957V8.10595H14.2579L13.9414 10.5407H11.8231V16.8549H15.9622C16.0795 16.8549 16.1956 16.8318 16.3039 16.787C16.4122 16.7421 16.5106 16.6763 16.5935 16.5934C16.6764 16.5106 16.7422 16.4121 16.787 16.3038C16.8319 16.1955 16.855 16.0794 16.855 15.9622V1.5158C16.855 1.39856 16.8319 1.28247 16.787 1.17416C16.7422 1.06584 16.6764 0.967428 16.5935 0.884528C16.5106 0.801629 16.4122 0.735869 16.3039 0.691004C16.1956 0.646139 16.0795 0.623047 15.9622 0.623047V0.623047Z" fill="white"/>
</svg>
