<svg width="24" height="18" viewBox="0 0 24 18" fill="none" xmlns="http://www.w3.org/2000/svg">
<path fill-rule="evenodd" clip-rule="evenodd" d="M3.98106 0H19.9053C20.9643 0 21.9755 0.421992 22.7239 1.16247C23.4644 1.91091 23.8864 2.9221 23.8864 3.98106V13.5356C23.8864 14.5946 23.4644 15.6058 22.7239 16.3542C21.9755 17.0947 20.9643 17.5167 19.9053 17.5167H3.98106C2.9221 17.5167 1.91091 17.0947 1.16247 16.3542C0.421992 15.6058 0 14.5946 0 13.5356V3.98106C0 2.9221 0.421992 1.91091 1.16247 1.16247C1.91091 0.421992 2.9221 0 3.98106 0ZM3.98106 1.59242H19.9053C20.5423 1.59242 21.1474 1.84721 21.5933 2.29309C22.0392 2.73897 22.2939 3.34409 22.2939 3.98106V13.5356C22.2939 14.1726 22.0392 14.7777 21.5933 15.2236C21.1474 15.6695 20.5423 15.9242 19.9053 15.9242H3.98106C3.34409 15.9242 2.73897 15.6695 2.29309 15.2236C1.84721 14.7777 1.59242 14.1726 1.59242 13.5356V3.98106C1.59242 3.34409 1.84721 2.73897 2.29309 2.29309C2.73897 1.84721 3.34409 1.59242 3.98106 1.59242Z" fill="#05D4F5"/>
<path d="M22.7321 3.27251C22.9232 3.17697 23.1381 3.16104 23.3451 3.22474C23.5442 3.2964 23.7114 3.43972 23.799 3.62285C23.8945 3.81394 23.9105 4.02892 23.8468 4.23593C23.7751 4.43498 23.6318 4.60219 23.4487 4.68977L13.7269 9.55463C13.7189 9.55463 13.711 9.56259 13.703 9.56259C13.1536 9.81738 12.5485 9.94477 11.9434 9.93681C11.3383 9.94477 10.7331 9.81738 10.1838 9.56259C10.1758 9.56259 10.1678 9.55463 10.1599 9.55463L0.438125 4.68977C0.254996 4.60219 0.111678 4.43498 0.0400187 4.23593C-0.0236783 4.02892 -0.00775398 3.81394 0.0877915 3.62285C0.175375 3.43972 0.342579 3.2964 0.541632 3.22474C0.748648 3.16104 0.963625 3.17697 1.15472 3.27251L10.8685 8.12145C11.2029 8.28069 11.5692 8.35235 11.9434 8.34439C12.3176 8.35235 12.6839 8.28069 13.0183 8.12145L22.7321 3.27251ZM7.96233 12.7395C8.17731 12.7395 8.37636 12.8271 8.52764 12.9704C8.67096 13.1217 8.75854 13.3207 8.75854 13.5357C8.75854 13.7507 8.67096 13.9497 8.52764 14.101C8.37636 14.2443 8.17731 14.3319 7.96233 14.3319H3.98127C3.76629 14.3319 3.56724 14.2443 3.41596 14.101C3.27264 13.9497 3.18506 13.7507 3.18506 13.5357C3.18506 13.3207 3.27264 13.1217 3.41596 12.9704C3.56724 12.8271 3.76629 12.7395 3.98127 12.7395H7.96233Z" fill="#05D4F5"/>
</svg>
