<svg width="106" height="102" viewBox="0 0 106 102" fill="none" xmlns="http://www.w3.org/2000/svg">
<path d="M52.0262 1.50069L52.0001 1.49931L51.9739 1.50069L46.852 1.76911L46.8258 1.77049L46.7999 1.77458L41.7342 2.57692L41.7083 2.58102L41.683 2.5878L36.7288 3.91527L36.7035 3.92205L36.679 3.93144L31.8908 5.76948L31.8663 5.77887L31.843 5.79077L27.2731 8.11925L27.2497 8.13115L27.2277 8.14542L22.9263 10.9388L22.9043 10.9531L22.8839 10.9696L18.898 14.1973L18.8776 14.2138L18.8591 14.2323L15.2324 17.859L15.2139 17.8776L15.1974 17.8979L11.9697 21.8839L11.9532 21.9042L11.9389 21.9262L9.14548 26.2277L9.13121 26.2497L9.11931 26.273L6.79083 30.8429L6.77893 30.8663L6.76954 30.8907L4.9315 35.679L4.92211 35.7034L4.91533 35.7288L3.58786 40.6829L3.58108 40.7082L3.57698 40.7341L2.77465 45.7999L2.77055 45.8258L2.76918 45.8519L2.50075 50.9738L2.49937 51L2.50075 51.0262L2.76918 56.1481L2.77055 56.1742L2.77465 56.2001L3.57698 61.2659L3.58108 61.2918L3.58786 61.3171L4.91533 66.2712L4.92211 66.2966L4.9315 66.321L6.76954 71.1093L6.77893 71.1337L6.79083 71.1571L9.11931 75.727L9.13121 75.7503L9.14548 75.7723L11.9389 80.0738L11.9532 80.0958L11.9697 80.1161L15.1974 84.1021L15.2139 84.1224L15.2324 84.141L18.8591 87.7676L18.8776 87.7862L18.898 87.8027L22.8839 91.0304L22.9043 91.0469L22.9263 91.0612L27.2277 93.8546L27.2497 93.8689L27.2731 93.8807L31.843 96.2092L31.8663 96.2211L31.8908 96.2305L36.679 98.0686L36.7035 98.0779L36.7288 98.0847L41.683 99.4122L41.7083 99.419L41.7342 99.4231L46.7999 100.225L46.8258 100.23L46.852 100.231L51.9739 100.499L52.0001 100.501L52.0262 100.499L57.1481 100.231L57.1743 100.23L57.2002 100.225L62.2659 99.4231L62.2918 99.419L62.3171 99.4122L67.2713 98.0847L67.2966 98.0779L67.3211 98.0686L72.1093 96.2305L72.1338 96.2211L72.1572 96.2092L76.7271 93.8807L76.7504 93.8689L76.7724 93.8546L81.0739 91.0612L81.0958 91.0469L81.1162 91.0304L85.1021 87.8027L85.1225 87.7862L85.141 87.7676L88.7677 84.141L88.7862 84.1224L88.8027 84.1021L92.0305 80.1161L92.047 80.0958L92.0612 80.0738L94.8546 75.7723L94.8689 75.7503L94.8808 75.727L97.2093 71.1571L97.2212 71.1337L97.2306 71.1093L99.0686 66.321L99.078 66.2965L99.0848 66.2712L100.412 61.3171L100.419 61.2918L100.423 61.2659L101.225 56.2001L101.23 56.1742L101.231 56.1481L101.499 51.0262L101.501 51L101.499 50.9738L101.231 45.8519L101.23 45.8258L101.225 45.7999L100.423 40.7341L100.419 40.7082L100.412 40.6829L99.0848 35.7288L99.078 35.7034L99.0686 35.679L97.2306 30.8907L97.2212 30.8663L97.2093 30.8429L94.8808 26.273L94.8689 26.2497L94.8546 26.2277L92.0612 21.9262L92.047 21.9042L92.0305 21.8839L88.8027 17.8979L88.7862 17.8776L88.7677 17.859L85.141 14.2324L85.1225 14.2138L85.1021 14.1973L81.1162 10.9696L81.0958 10.9531L81.0739 10.9388L76.7724 8.14542L76.7504 8.13115L76.7271 8.11925L72.1572 5.79077L72.1338 5.77887L72.1093 5.76948L67.3211 3.93144L67.2966 3.92205L67.2713 3.91527L62.3171 2.5878L62.2918 2.58102L62.2659 2.57692L57.2002 1.77458L57.1743 1.77049L57.1481 1.76911L52.0262 1.50069Z" fill="#F3FDFC" stroke="#464646"/>
<circle cx="96.5" cy="30.5" r="3.5" fill="#05D4F5"/>
<circle cx="102.5" cy="52.5" r="3.5" fill="#05D4F5"/>
<circle cx="93.5" cy="42.5" r="5.5" fill="#05D4F5"/>
<line x1="94.5149" y1="38.8787" x2="96.5149" y2="30.8787" stroke="#05D4F5"/>
<line x1="101.514" y1="51.9194" x2="96.5985" y2="45.2981" stroke="#05D4F5"/>
<circle r="2.68791" transform="matrix(-0.56806 0.822987 0.822987 0.56806 6.35655 80.8992)" fill="#05D4F5"/>
<circle r="2.68791" transform="matrix(-0.56806 0.822987 0.822987 0.56806 17.6437 94.2891)" fill="#05D4F5"/>
<circle r="4.22386" transform="matrix(-0.56806 0.822987 0.822987 0.56806 15.2498 84.2381)" fill="#05D4F5"/>
<line y1="-0.5" x2="6.33287" y2="-0.5" transform="matrix(-0.93619 -0.351495 -0.351495 0.93619 12.3834 83.6592)" stroke="#05D4F5"/>
<line y1="-0.5" x2="6.33287" y2="-0.5" transform="matrix(-0.32223 -0.946661 -0.946661 0.32223 17.3439 93.5361)" stroke="#05D4F5"/>
<g clip-path="url(#clip0_3_718)">
<path d="M58.2144 35C62.0775 35 65.5811 36.5672 68.1208 39.0877C70.6567 41.6158 72.221 45.101 72.221 48.96C72.221 51.7779 71.3796 54.409 69.9414 56.6015L76.0038 63.1868L71.8232 66.9962L65.9712 60.5863C63.7528 62.062 61.0792 62.9199 58.2144 62.9199C55.0244 62.9199 52.0793 61.8522 49.7231 60.0601C48.2544 61.5358 46.8507 62.939 45.6688 64.1173L37.5486 56.1211L31.8419 61.6463L29 58.8132L37.5983 50.4814C40.2834 53.1582 42.9378 55.8046 45.6497 58.4738L46.908 57.2078C45.2098 54.897 44.2115 52.0524 44.2115 48.9638C44.2115 45.1125 45.7835 41.6196 48.3118 39.0915C50.8477 36.5558 54.3436 35 58.2144 35ZM49.0576 55.0458L54.6534 49.4137L51.3219 46.0925L60.6929 46.0086V55.4347L57.4915 52.2431C55.885 53.8637 53.8617 55.9037 51.8192 57.959C53.6283 59.2745 55.8621 60.0562 58.2717 60.0562C61.2972 60.0562 64.0435 58.8284 66.0247 56.8494C68.0099 54.8704 69.2415 52.1363 69.2415 49.1201C69.2415 46.1039 68.0099 43.3661 66.0247 41.3908C64.0396 39.4118 61.2972 38.184 58.2717 38.184C55.2463 38.184 52.5 39.4118 50.5187 41.3908C48.5336 43.3699 47.302 46.1039 47.302 49.1201C47.302 51.3012 47.9484 53.3375 49.0576 55.0458Z" fill="#464646"/>
</g>
<defs>
<clipPath id="clip0_3_718">
<rect width="47" height="32" fill="white" transform="translate(29 35)"/>
</clipPath>
</defs>
</svg>
