<svg width="106" height="98" viewBox="0 0 106 98" fill="none" xmlns="http://www.w3.org/2000/svg">
<path d="M51 0L56.1219 0.268429L61.1877 1.07077L66.1418 2.39823L70.9301 4.23627L75.5 6.56475L79.8015 9.35817L83.7874 12.5859L87.4141 16.2126L90.6418 20.1985L93.4352 24.5L95.7637 29.0699L97.6018 33.8582L98.9292 38.8123L99.7316 43.8781L100 49L99.7316 54.1219L98.9292 59.1877L97.6018 64.1418L95.7637 68.9301L93.4352 73.5L90.6418 77.8015L87.4141 81.7874L83.7874 85.4141L79.8015 88.6418L75.5 91.4352L70.9301 93.7637L66.1418 95.6018L61.1877 96.9292L56.1219 97.7316L51 98L45.8781 97.7316L40.8123 96.9292L35.8582 95.6018L31.0699 93.7637L26.5 91.4352L22.1985 88.6418L18.2126 85.4141L14.5859 81.7874L11.3582 77.8015L8.56475 73.5L6.23627 68.9301L4.39823 64.1418L3.07077 59.1877L2.26843 54.1219L2 49L2.26843 43.8781L3.07077 38.8123L4.39823 33.8582L6.23627 29.0699L8.56475 24.5L11.3582 20.1985L14.5859 16.2126L18.2126 12.5859L22.1985 9.35817L26.5 6.56475L31.0699 4.23627L35.8582 2.39823L40.8123 1.07077L45.8781 0.268429L51 0Z" fill="white"/>
<circle cx="96.5" cy="28.5" r="3.5" fill="#DAFFFC"/>
<circle cx="102.5" cy="50.5" r="3.5" fill="#DAFFFC"/>
<circle cx="93.5" cy="40.5" r="5.5" fill="#DAFFFC"/>
<line x1="94.5149" y1="36.8787" x2="96.5149" y2="28.8787" stroke="#05D4F5"/>
<line x1="101.514" y1="49.9194" x2="96.5985" y2="43.2981" stroke="#05D4F5"/>
<circle r="2.68791" transform="matrix(-0.56806 0.822987 0.822987 0.56806 6.35649 78.8992)" fill="#DAFFFC"/>
<circle r="2.68791" transform="matrix(-0.56806 0.822987 0.822987 0.56806 17.6437 92.2891)" fill="#DAFFFC"/>
<circle r="4.22386" transform="matrix(-0.56806 0.822987 0.822987 0.56806 15.2496 82.2381)" fill="#DAFFFC"/>
<line y1="-0.5" x2="6.33287" y2="-0.5" transform="matrix(-0.93619 -0.351495 -0.351495 0.93619 12.3833 81.6592)" stroke="#05D4F5"/>
<line y1="-0.5" x2="6.33287" y2="-0.5" transform="matrix(-0.32223 -0.946661 -0.946661 0.32223 17.3438 91.5361)" stroke="#05D4F5"/>
<g clip-path="url(#clip0_3_719)">
<path fill-rule="evenodd" clip-rule="evenodd" d="M67.3158 29.7728L68.3065 31.1027C68.5666 31.4537 68.5016 31.9567 68.1573 32.2219L67.1055 33.037C67.2967 33.5557 67.4191 34.1094 67.4688 34.6749L68.666 34.8426C69.0944 34.9011 69.3927 35.3067 69.3354 35.7435L69.1135 37.4009C69.0562 37.8377 68.6584 38.1457 68.23 38.0833L66.9219 37.9001C66.6886 38.4187 66.3902 38.8945 66.0383 39.3196L66.7727 40.3023C67.0328 40.6533 66.964 41.1564 66.6197 41.4216L65.3154 42.4316C64.9712 42.6968 64.4778 42.6266 64.2177 42.2795L63.4183 41.2071C62.9058 41.4021 62.3665 41.5269 61.808 41.5776L61.6436 42.7982C61.5862 43.235 61.1884 43.5392 60.76 43.4807L59.1344 43.2545C58.7061 43.196 58.4077 42.7904 58.4651 42.3536L58.6449 41.0199C58.14 40.782 57.6695 40.4778 57.2526 40.1229L56.2887 40.8678C55.9445 41.133 55.4511 41.0667 55.191 40.7157L54.2004 39.3859C53.9403 39.0349 54.0053 38.5318 54.3495 38.2666L55.4014 37.4516C55.2101 36.929 55.0877 36.3791 55.038 35.8136L53.8408 35.646C53.4124 35.5875 53.1103 35.1819 53.1715 34.7451L53.3933 33.0877C53.4545 32.6509 53.8485 32.3467 54.2769 32.4052L55.585 32.5885C55.8183 32.0737 56.1166 31.594 56.4647 31.169L55.7341 30.1862C55.474 29.8391 55.5391 29.3361 55.8833 29.0709L57.1876 28.0608C57.5318 27.7956 58.0252 27.8619 58.2853 28.2129L59.0847 29.2854C59.5934 29.0904 60.1366 28.9656 60.6912 28.9149L60.8556 27.6942C60.913 27.2574 61.3108 26.9494 61.7392 27.0079L63.3648 27.234C63.7931 27.2925 64.0953 27.6981 64.0341 28.1349L63.8543 29.4686C64.363 29.7065 64.8297 30.0107 65.2504 30.3695L66.2143 29.6246C66.5585 29.3555 67.0519 29.4218 67.3158 29.7728ZM39.6965 48.8741H63.0052C63.4489 48.8741 63.8543 49.0613 64.1489 49.3616L64.1527 49.3655L64.1565 49.3694C64.451 49.6697 64.6308 50.0831 64.6308 50.5355V70.3426C64.6308 70.7989 64.4472 71.2123 64.1527 71.5126C63.8582 71.8129 63.4527 72.0001 63.0052 72.0001H39.6965C39.2528 72.0001 38.8473 71.8168 38.549 71.5126L38.5452 71.5087L38.5414 71.5048C38.2468 71.2045 38.0671 70.7911 38.0671 70.3387V50.5277C38.0709 50.0714 38.2545 49.658 38.5452 49.3577C38.5643 49.3421 38.5796 49.3226 38.5987 49.307C38.8932 49.0418 39.2757 48.8741 39.6965 48.8741ZM42.328 67.6401C41.9914 67.6401 41.716 67.332 41.716 66.9576C41.716 66.5793 41.9914 66.2712 42.328 66.2712H49.3849C49.7214 66.2712 49.9968 66.5793 49.9968 66.9576C49.9968 67.3359 49.7214 67.644 49.3849 67.644H42.328V67.6401ZM52.2918 67.6401C51.9513 67.6401 51.6721 67.332 51.6721 66.9576C51.6721 66.5793 51.9475 66.2712 52.2918 66.2712H59.9032C60.2437 66.2712 60.5229 66.5793 60.5229 66.9576C60.5229 67.3359 60.2475 67.644 59.9032 67.644H52.2918V67.6401ZM41.8728 56.5373H60.4464V63.9508H41.8728V56.5373ZM63.1659 54.8097C63.1123 54.8175 63.0626 54.8214 63.009 54.8214H39.6965C39.6429 54.8214 39.5894 54.8175 39.5396 54.8097V70.3387C39.5396 70.3816 39.5588 70.4206 39.5817 70.4518L39.5855 70.4557C39.6123 70.483 39.6506 70.4986 39.6965 70.4986H63.0052C63.0473 70.4986 63.0855 70.483 63.1161 70.4518C63.1429 70.4206 63.1659 70.3816 63.1659 70.3387V54.8097ZM48.9067 51.0112C49.4881 51.0112 49.9624 51.4948 49.9624 52.0876C49.9624 52.6804 49.4881 53.1639 48.9067 53.1639C48.3254 53.1639 47.8511 52.6804 47.8511 52.0876C47.8511 51.4948 48.3254 51.0112 48.9067 51.0112ZM45.2157 51.0112C45.801 51.0112 46.2714 51.4948 46.2714 52.0876C46.2714 52.6804 45.7971 53.1639 45.2157 53.1639C44.6344 53.1639 44.1601 52.6804 44.1601 52.0876C44.1601 51.4948 44.6344 51.0112 45.2157 51.0112ZM41.5286 51.0112C42.1138 51.0112 42.5842 51.4948 42.5842 52.0876C42.5842 52.6804 42.11 53.1639 41.5286 53.1639C40.9472 53.1639 40.4729 52.6804 40.4729 52.0876C40.4729 51.4948 40.9472 51.0112 41.5286 51.0112ZM51.1519 31.4693C50.452 31.4147 49.7444 31.4225 49.0444 31.4927C46.891 31.7032 44.7988 32.5027 43.07 33.8715C41.0696 35.451 39.5511 37.8143 38.9659 40.9458L38.7823 41.9247L37.8261 42.0963C36.889 42.2639 36.0514 42.494 35.317 42.7865C34.6056 43.0673 33.9706 43.4144 33.416 43.8239C32.9723 44.1515 32.5899 44.518 32.2647 44.9158C31.2588 46.1443 30.7922 47.6847 30.8036 49.2446C30.8151 50.8279 31.32 52.4269 32.2533 53.7411C32.6013 54.2286 33.0029 54.6771 33.4619 55.0671C33.9286 55.4609 34.4526 55.7885 35.0416 56.0342C35.3744 56.1746 35.7301 56.2916 36.1011 56.3852V59.3062C35.3361 59.1658 34.6323 58.9552 33.9745 58.6783C33.1062 58.3117 32.3374 57.8398 31.6604 57.2626C31.0178 56.7167 30.4556 56.0966 29.9775 55.4219C28.7038 53.628 28.0153 51.4363 28 49.2524C27.9847 47.0451 28.6579 44.8495 30.1113 43.0712C30.5818 42.494 31.1364 41.9637 31.7713 41.4957C32.5095 40.9497 33.3548 40.4895 34.311 40.1112C34.9689 39.85 35.6727 39.6316 36.4147 39.4561C37.2562 36.0476 39.0501 33.4231 41.3565 31.6018C43.5137 29.8976 46.1108 28.9032 48.7844 28.6419C50.1881 28.5054 51.6109 28.5678 53.0032 28.833C52.9726 28.9617 52.9458 29.0904 52.9305 29.223L52.9267 29.2464C52.8999 29.4686 52.8884 29.6909 52.8999 29.9171C52.6054 30.0341 52.33 30.194 52.0814 30.389L52.0699 30.3968C51.6989 30.6815 51.3853 31.0481 51.1519 31.4693ZM71.3893 38.9569C71.6035 39.1558 71.8101 39.3625 72.0128 39.5848C72.422 40.0333 72.8084 40.5402 73.1717 41.1057C74.3957 43.0244 75.023 45.5866 74.9962 48.0942C74.9694 50.555 74.3192 53.004 72.9881 54.8058C72.1199 55.9796 71.0068 56.939 69.672 57.6994C68.7578 58.222 67.7289 58.6549 66.6082 59.0059V55.9835C67.2126 55.7534 67.7748 55.496 68.2912 55.2035C69.2971 54.6303 70.1195 53.9322 70.7353 53.0937C71.6915 51.7951 72.162 49.9583 72.1811 48.0747C72.204 46.0975 71.7297 44.1125 70.8079 42.6695C70.544 42.2522 70.2533 41.8779 69.9474 41.5425C69.8288 41.4138 69.7102 41.2929 69.5878 41.1759C69.6069 40.9809 69.6146 40.782 69.6031 40.5831C69.8976 40.4661 70.173 40.3062 70.4216 40.1112L70.4331 40.1034C70.8271 39.7954 71.156 39.4054 71.3893 38.9569ZM61.6895 31.9918C63.4527 32.2375 64.6843 33.8949 64.4434 35.6928C64.2024 37.4906 62.5768 38.7502 60.8136 38.5045C59.0503 38.2588 57.8149 36.6014 58.0597 34.8036C58.3044 33.0058 59.9262 31.7461 61.6895 31.9918Z" fill="#05D4F5"/>
</g>
<defs>
<clipPath id="clip0_3_719">
<rect width="47" height="45" fill="white" transform="translate(28 27)"/>
</clipPath>
</defs>
</svg>
