<svg width="106" height="102" viewBox="0 0 106 102" fill="none" xmlns="http://www.w3.org/2000/svg">
<path d="M51.0262 1.50069L51 1.49931L50.9738 1.50069L45.8519 1.76911L45.8258 1.77049L45.7999 1.77458L40.7341 2.57692L40.7082 2.58102L40.6829 2.5878L35.7288 3.91527L35.7034 3.92205L35.679 3.93144L30.8907 5.76948L30.8663 5.77887L30.8429 5.79077L26.273 8.11925L26.2497 8.13115L26.2277 8.14542L21.9262 10.9388L21.9042 10.9531L21.8839 10.9696L17.8979 14.1973L17.8776 14.2138L17.859 14.2323L14.2323 17.859L14.2138 17.8776L14.1973 17.8979L10.9696 21.8839L10.9531 21.9042L10.9388 21.9262L8.14542 26.2277L8.13115 26.2497L8.11925 26.273L5.79077 30.8429L5.77887 30.8663L5.76948 30.8907L3.93144 35.679L3.92205 35.7034L3.91527 35.7288L2.5878 40.6829L2.58102 40.7082L2.57692 40.7341L1.77458 45.7999L1.77049 45.8258L1.76911 45.8519L1.50069 50.9738L1.49931 51L1.50069 51.0262L1.76911 56.1481L1.77049 56.1742L1.77458 56.2001L2.57692 61.2659L2.58102 61.2918L2.5878 61.3171L3.91527 66.2712L3.92205 66.2966L3.93144 66.321L5.76948 71.1093L5.77887 71.1337L5.79077 71.1571L8.11925 75.727L8.13115 75.7503L8.14542 75.7723L10.9388 80.0738L10.9531 80.0958L10.9696 80.1161L14.1973 84.1021L14.2138 84.1224L14.2324 84.141L17.859 87.7676L17.8776 87.7862L17.8979 87.8027L21.8839 91.0304L21.9042 91.0469L21.9262 91.0612L26.2277 93.8546L26.2497 93.8689L26.273 93.8807L30.8429 96.2092L30.8663 96.2211L30.8907 96.2305L35.679 98.0686L35.7034 98.0779L35.7288 98.0847L40.6829 99.4122L40.7082 99.419L40.7341 99.4231L45.7999 100.225L45.8258 100.23L45.8519 100.231L50.9738 100.499L51 100.501L51.0262 100.499L56.1481 100.231L56.1742 100.23L56.2001 100.225L61.2659 99.4231L61.2918 99.419L61.3171 99.4122L66.2712 98.0847L66.2965 98.0779L66.321 98.0686L71.1093 96.2305L71.1337 96.2211L71.1571 96.2092L75.727 93.8807L75.7503 93.8689L75.7723 93.8546L80.0738 91.0612L80.0958 91.0469L80.1161 91.0304L84.1021 87.8027L84.1224 87.7862L84.141 87.7676L87.7676 84.141L87.7862 84.1224L87.8027 84.1021L91.0304 80.1161L91.0469 80.0958L91.0612 80.0738L93.8546 75.7723L93.8689 75.7503L93.8807 75.727L96.2092 71.1571L96.2211 71.1337L96.2305 71.1093L98.0686 66.321L98.0779 66.2965L98.0847 66.2712L99.4122 61.3171L99.419 61.2918L99.4231 61.2659L100.225 56.2001L100.23 56.1742L100.231 56.1481L100.499 51.0262L100.501 51L100.499 50.9738L100.231 45.8519L100.23 45.8258L100.225 45.7999L99.4231 40.7341L99.419 40.7082L99.4122 40.6829L98.0847 35.7288L98.0779 35.7034L98.0686 35.679L96.2305 30.8907L96.2211 30.8663L96.2092 30.8429L93.8807 26.273L93.8689 26.2497L93.8546 26.2277L91.0612 21.9262L91.0469 21.9042L91.0304 21.8839L87.8027 17.8979L87.7862 17.8776L87.7676 17.859L84.141 14.2324L84.1224 14.2138L84.1021 14.1973L80.1161 10.9696L80.0958 10.9531L80.0738 10.9388L75.7723 8.14542L75.7503 8.13115L75.727 8.11925L71.1571 5.79077L71.1337 5.77887L71.1093 5.76948L66.321 3.93144L66.2966 3.92205L66.2712 3.91527L61.3171 2.5878L61.2918 2.58102L61.2659 2.57692L56.2001 1.77458L56.1742 1.77049L56.1481 1.76911L51.0262 1.50069Z" fill="#F3FDFC" stroke="#464646"/>
<circle cx="96.5" cy="30.5" r="3.5" fill="#05D4F5"/>
<circle cx="102.5" cy="52.5" r="3.5" fill="#05D4F5"/>
<circle cx="93.5" cy="42.5" r="5.5" fill="#05D4F5"/>
<line x1="94.5149" y1="38.8787" x2="96.5149" y2="30.8787" stroke="#05D4F5"/>
<line x1="101.514" y1="51.9194" x2="96.5985" y2="45.2981" stroke="#05D4F5"/>
<circle r="2.68791" transform="matrix(-0.56806 0.822987 0.822987 0.56806 6.35649 80.8992)" fill="#05D4F5"/>
<circle r="2.68791" transform="matrix(-0.56806 0.822987 0.822987 0.56806 17.6437 94.2891)" fill="#05D4F5"/>
<circle r="4.22386" transform="matrix(-0.56806 0.822987 0.822987 0.56806 15.2496 84.2381)" fill="#05D4F5"/>
<line y1="-0.5" x2="6.33287" y2="-0.5" transform="matrix(-0.93619 -0.351495 -0.351495 0.93619 12.3833 83.6592)" stroke="#05D4F5"/>
<line y1="-0.5" x2="6.33287" y2="-0.5" transform="matrix(-0.32223 -0.946661 -0.946661 0.32223 17.3438 93.5361)" stroke="#05D4F5"/>
<g clip-path="url(#clip0_7_724)">
<path fill-rule="evenodd" clip-rule="evenodd" d="M27.0049 63.7672H32.0253C31.8401 63.7196 31.6762 63.6141 31.5587 63.467C31.4413 63.3199 31.3768 63.1393 31.3753 62.9531V42.9777C31.3764 42.7542 31.4684 42.5403 31.6313 42.3826C31.7943 42.225 32.0148 42.1365 32.2446 42.1365H37.7476L37.3927 43.5242H32.9265V62.7128H67.9618V43.5204H63.5754L63.1767 42.1326H68.544C68.7714 42.1367 68.9881 42.2276 69.147 42.3858C69.306 42.5439 69.3945 42.7566 69.3934 42.9777V62.9492C69.3932 63.1358 69.3293 63.317 69.2116 63.4643C69.094 63.6117 68.9293 63.7169 68.7434 63.7633H73.9951C75.335 63.7633 75.335 66 73.9951 66H27.0049C25.665 66 25.665 63.7672 27.0049 63.7672V63.7672ZM49.0126 36H52.434C52.5556 36 52.6723 36.047 52.7583 36.1306C52.8443 36.2142 52.8926 36.3276 52.8926 36.4458V37.5506H58.2998C58.3908 37.2949 58.5409 37.0628 58.7384 36.8722V36.8722C58.9104 36.7041 59.1148 36.5708 59.34 36.4798C59.5651 36.3887 59.8065 36.3419 60.0504 36.3419C60.2942 36.3419 60.5356 36.3887 60.7608 36.4798C60.9859 36.5708 61.1904 36.7041 61.3623 36.8722V36.8722C61.5352 37.0394 61.6724 37.2381 61.766 37.457C61.8596 37.6758 61.9078 37.9105 61.9078 38.1476C61.9078 38.3846 61.8596 38.6193 61.766 38.8382C61.6724 39.0571 61.5352 39.2558 61.3623 39.4229V39.4229C61.1904 39.591 60.9859 39.7244 60.7608 39.8154C60.5356 39.9064 60.2942 39.9533 60.0504 39.9533C59.8065 39.9533 59.5651 39.9064 59.34 39.8154C59.1148 39.7244 58.9104 39.591 58.7384 39.4229V39.4229C58.5371 39.2231 58.3869 38.9801 58.2998 38.7135H55.5085C56.41 39.22 57.2252 39.8595 57.925 40.6091C59.3211 42.1084 60.2432 43.967 60.5807 45.9625H61.3304C61.4035 45.961 61.4761 45.9737 61.5441 45.9999C61.612 46.0262 61.6738 46.0654 61.7259 46.1153C61.7779 46.1652 61.8192 46.2247 61.8471 46.2903C61.8751 46.356 61.8892 46.4264 61.8887 46.4975V48.9358C61.8892 49.0059 61.8755 49.0753 61.8482 49.1402C61.821 49.2051 61.7809 49.2641 61.7301 49.3138C61.6793 49.3636 61.6189 49.403 61.5524 49.43C61.4858 49.4569 61.4144 49.4708 61.3424 49.4708H58.8501C58.7778 49.4708 58.7063 49.4569 58.6395 49.43C58.5727 49.4031 58.5121 49.3637 58.461 49.3141C58.4099 49.2644 58.3694 49.2054 58.3417 49.1405C58.314 49.0756 58.2998 49.006 58.2998 48.9358V46.4975C58.2998 46.3556 58.3578 46.2196 58.461 46.1192C58.5642 46.0189 58.7042 45.9625 58.8501 45.9625H59.4243C59.0956 44.2498 58.2838 42.6594 57.0796 41.3689C55.957 40.1636 54.5048 39.2937 52.8926 38.8609V39.8106C52.8936 39.8698 52.8826 39.9286 52.86 39.9836C52.8374 40.0386 52.8038 40.0886 52.7611 40.1308C52.7184 40.1731 52.6675 40.2066 52.6114 40.2295C52.5552 40.2524 52.4949 40.2641 52.434 40.2641H49.0126C48.9522 40.2647 48.8924 40.2535 48.8365 40.2313C48.7806 40.209 48.7299 40.1762 48.6872 40.1347C48.6445 40.0932 48.6107 40.0439 48.5879 39.9895C48.565 39.9352 48.5535 39.877 48.554 39.8183V38.8609C46.8994 39.3071 45.4158 40.2155 44.2873 41.4736C43.1389 42.7484 42.3611 44.298 42.0343 45.9625H42.5965C42.6688 45.9625 42.7403 45.9764 42.8071 46.0033C42.8739 46.0301 42.9345 46.0696 42.9856 46.1192C43.0367 46.1689 43.0773 46.2279 43.1049 46.2928C43.1326 46.3577 43.1468 46.4272 43.1468 46.4975V48.9358C43.1468 49.006 43.1326 49.0756 43.1049 49.1405C43.0773 49.2054 43.0367 49.2644 42.9856 49.3141C42.9345 49.3637 42.8739 49.4031 42.8071 49.43C42.7403 49.4569 42.6688 49.4708 42.5965 49.4708H40.1162C40.0433 49.4718 39.9709 49.4587 39.9032 49.4323C39.8355 49.4059 39.7739 49.3666 39.7219 49.3168C39.67 49.2671 39.6287 49.2077 39.6006 49.1423C39.5724 49.0769 39.5579 49.0067 39.5579 48.9358V46.4975C39.5579 46.4266 39.5724 46.3564 39.6006 46.291C39.6287 46.2256 39.67 46.1662 39.7219 46.1165C39.7739 46.0667 39.8355 46.0274 39.9032 46.001C39.9709 45.9746 40.0433 45.9615 40.1162 45.9625H40.8778C41.2183 44.0254 42.1044 42.2179 43.4379 40.7409C44.1521 39.9372 44.9966 39.2523 45.9382 38.7135H42.7122C42.6211 38.9681 42.471 39.1989 42.2735 39.3881V39.3881C42.1018 39.5564 41.8974 39.6901 41.6722 39.7812C41.447 39.8724 41.2055 39.9192 40.9616 39.9191C40.4681 39.9174 39.9953 39.7266 39.6457 39.3881V39.3881C39.4728 39.2209 39.3356 39.0222 39.242 38.8033C39.1483 38.5844 39.1001 38.3497 39.1001 38.1127C39.1001 37.8757 39.1483 37.641 39.242 37.4221C39.3356 37.2032 39.4728 37.0045 39.6457 36.8373V36.8373C39.8176 36.6693 40.022 36.5359 40.2472 36.4449C40.4723 36.3539 40.7138 36.307 40.9576 36.307C41.2014 36.307 41.4429 36.3539 41.668 36.4449C41.8932 36.5359 42.0976 36.6693 42.2695 36.8373C42.4733 37.0375 42.625 37.282 42.7122 37.5506H48.554V36.4458C48.5535 36.3871 48.565 36.3289 48.5879 36.2746C48.6107 36.2203 48.6445 36.1709 48.6872 36.1294C48.7299 36.0879 48.7806 36.0551 48.8365 36.0329C48.8924 36.0107 48.9522 35.9995 49.0126 36V36ZM55.7716 51.7928L53.9972 56.2042L47.4535 56.1228L45.6431 51.7928C47.1982 49.0792 48.7813 45.7881 49.5948 42.8769L50.4561 42.9699L50.4242 50.7694C50.2347 50.8362 50.076 50.9668 49.9767 51.1374C49.8775 51.308 49.8443 51.5075 49.883 51.6999C49.9218 51.8922 50.03 52.0648 50.1881 52.1864C50.3462 52.308 50.5439 52.3707 50.7454 52.3631C50.9469 52.3555 51.1389 52.2781 51.2869 52.145C51.4349 52.0118 51.529 51.8317 51.5523 51.637C51.5757 51.4423 51.5266 51.2459 51.4141 51.0832C51.3016 50.9206 51.1329 50.8024 50.9386 50.75L50.9626 43.0319L51.9515 42.9777C52.6733 45.8889 54.2404 49.18 55.7716 51.7811V51.7928ZM53.8416 58.0959H47.4854V56.8632H53.8416V58.0959ZM49.0764 64.1354H51.9196C52.5616 64.1354 52.5616 65.3488 51.9196 65.3488H49.0764C48.4344 65.3488 48.4304 64.1354 49.0764 64.1354Z" fill="#464646"/>
<path fill-rule="evenodd" clip-rule="evenodd" d="M55 51.7876L53.4232 56.1355L47.6087 56.0553L46 51.7876C47.3819 49.1131 48.7886 45.8693 49.5114 43L50.2768 43.0917L50.2484 50.7789C50.08 50.8448 49.939 50.9735 49.8508 51.1416C49.7626 51.3098 49.7331 51.5064 49.7675 51.696C49.8019 51.8856 49.8981 52.0557 50.0386 52.1755C50.1791 52.2954 50.3547 52.3572 50.5338 52.3497C50.7128 52.3422 50.8835 52.266 51.0149 52.1347C51.1464 52.0035 51.2301 51.8259 51.2508 51.634C51.2715 51.4421 51.228 51.2486 51.128 51.0883C51.028 50.9279 50.8782 50.8115 50.7055 50.7598L50.7268 43.1528L51.6055 43.0993C52.2468 45.9687 53.6394 49.2124 55 51.7761V51.7876ZM53.285 58H47.637V56.785H53.285V58Z" fill="#05D4F5"/>
</g>
<defs>
<clipPath id="clip0_7_724">
<rect width="49" height="30" fill="white" transform="translate(26 36)"/>
</clipPath>
</defs>
</svg>
