<svg width="21" height="21" viewBox="0 0 21 21" fill="none" xmlns="http://www.w3.org/2000/svg">
<path d="M10.3477 8.20925C9.92477 8.20925 9.5113 8.33467 9.15962 8.56966C8.80794 8.80464 8.53383 9.13864 8.37197 9.52941C8.21011 9.92018 8.16776 10.3502 8.25028 10.765C8.33279 11.1798 8.53647 11.5609 8.83555 11.86C9.13463 12.1591 9.51569 12.3627 9.93053 12.4453C10.3454 12.5278 10.7754 12.4854 11.1661 12.3236C11.5569 12.1617 11.8909 11.8876 12.1259 11.5359C12.3609 11.1842 12.4863 10.7708 12.4863 10.3478C12.4863 10.067 12.431 9.78887 12.3235 9.52941C12.216 9.26995 12.0585 9.0342 11.8599 8.83561C11.6613 8.63703 11.4256 8.47951 11.1661 8.37203C10.9067 8.26456 10.6286 8.20925 10.3477 8.20925V8.20925ZM18.9106 6.09657C18.906 5.43065 18.7834 4.77081 18.5484 4.14773C18.3753 3.69178 18.1075 3.27773 17.7627 2.93288C17.4178 2.58803 17.0038 2.32023 16.5478 2.14715C15.9247 1.91213 15.2649 1.78951 14.599 1.78497C13.4866 1.72461 13.1589 1.72461 10.3477 1.72461C7.53658 1.72461 7.2089 1.72461 6.0965 1.78497C5.43059 1.78951 4.77075 1.91213 4.14766 2.14715C3.69172 2.32023 3.27767 2.58803 2.93282 2.93288C2.58797 3.27773 2.32017 3.69178 2.14708 4.14773C1.91207 4.77081 1.78945 5.43065 1.78491 6.09657C1.72455 7.20896 1.72455 7.53664 1.72455 10.3478C1.72455 13.159 1.72455 13.4866 1.78491 14.599C1.79419 15.2673 1.91665 15.9292 2.14708 16.5565C2.3194 17.0104 2.58698 17.422 2.93179 17.7637C3.27516 18.1107 3.69011 18.3785 4.14766 18.5485C4.77075 18.7835 5.43059 18.9061 6.0965 18.9106C7.2089 18.971 7.53658 18.971 10.3477 18.971C13.1589 18.971 13.4866 18.971 14.599 18.9106C15.2649 18.9061 15.9247 18.7835 16.5478 18.5485C17.0054 18.3785 17.4203 18.1107 17.7637 17.7637C18.1085 17.422 18.3761 17.0104 18.5484 16.5565C18.7832 15.9304 18.9058 15.2677 18.9106 14.599C18.9709 13.4866 18.9709 13.159 18.9709 10.3478C18.9709 7.53664 18.9709 7.20896 18.9106 6.09657V6.09657ZM16.7203 12.9951C16.6926 13.5273 16.579 14.0514 16.384 14.5473C16.2166 14.9609 15.9677 15.3367 15.6522 15.6522C15.3366 15.9678 14.9609 16.2166 14.5472 16.384C14.0467 16.5682 13.5196 16.6701 12.9864 16.6858C12.3052 16.6858 12.1241 16.6858 10.3477 16.6858C8.57136 16.6858 8.39027 16.6858 7.70904 16.6858C7.1759 16.6701 6.64881 16.5682 6.14824 16.384C5.72062 16.2251 5.33445 15.9716 5.01861 15.6424C4.70616 15.3331 4.46486 14.9594 4.3115 14.5473C4.12659 14.0472 4.02746 13.5196 4.01832 12.9865C4.01832 12.3053 4.01832 12.1242 4.01832 10.3478C4.01832 8.57142 4.01832 8.39033 4.01832 7.7091C4.02746 7.17604 4.12659 6.64835 4.3115 6.14831C4.47041 5.72068 4.72393 5.33452 5.0531 5.01867C5.36382 4.70791 5.73715 4.46686 6.14824 4.31157C6.64881 4.12738 7.1759 4.02546 7.70904 4.00975V4.00975C8.39027 4.00975 8.57136 4.00975 10.3477 4.00975C12.1241 4.00975 12.3052 4.00975 12.9864 4.00975C13.5196 4.02546 14.0467 4.12738 14.5472 4.31157C14.9749 4.47048 15.361 4.72399 15.6769 5.05316C15.9893 5.36252 16.2306 5.73623 16.384 6.14831C16.5682 6.64887 16.6701 7.17596 16.6858 7.7091C16.6858 8.39033 16.6858 8.57142 16.6858 10.3478C16.6858 12.1242 16.7461 12.3053 16.7203 12.9865V12.9951ZM15.3406 6.57946C15.2379 6.30092 15.076 6.04797 14.8661 5.83805C14.6562 5.62814 14.4032 5.46627 14.1247 5.36359C13.7422 5.23102 13.3394 5.16681 12.9347 5.17388C12.2621 5.17388 12.0724 5.17388 10.3477 5.17388C8.6231 5.17388 8.43339 5.17388 7.76078 5.17388C7.354 5.17786 6.95112 5.25376 6.57078 5.39809C6.2965 5.4961 6.04623 5.65136 5.83659 5.85357C5.62695 6.05577 5.46275 6.30028 5.35491 6.57084C5.22968 6.95489 5.1685 7.35693 5.17382 7.76084C5.17382 8.43345 5.17382 8.62316 5.17382 10.3478C5.17382 12.0724 5.17382 12.2621 5.17382 12.9348C5.18237 13.3411 5.25813 13.7432 5.39803 14.1248C5.5007 14.4033 5.66257 14.6563 5.87249 14.8662C6.0824 15.0761 6.33535 15.238 6.6139 15.3406C6.98182 15.4759 7.36899 15.5516 7.76078 15.5648V15.5648C8.43339 15.5648 8.6231 15.5648 10.3477 15.5648C12.0724 15.5648 12.2621 15.5648 12.9347 15.5648C13.3415 15.5609 13.7444 15.4849 14.1247 15.3406C14.4032 15.238 14.6562 15.0761 14.8661 14.8662C15.076 14.6563 15.2379 14.4033 15.3406 14.1248C15.4849 13.7444 15.5608 13.3415 15.5648 12.9348C15.5648 12.2621 15.5648 12.0724 15.5648 10.3478C15.5648 8.62316 15.5648 8.43345 15.5648 7.76084C15.565 7.35365 15.489 6.95002 15.3406 6.57084V6.57946ZM10.3477 13.6419C9.91556 13.6419 9.48763 13.5566 9.08846 13.3909C8.68929 13.2253 8.32672 12.9825 8.02153 12.6765C7.71634 12.3705 7.47451 12.0073 7.30991 11.6077C7.14531 11.2081 7.06117 10.78 7.0623 10.3478V10.3478C7.0623 9.69593 7.25572 9.05871 7.61806 8.51682C7.98039 7.97493 8.49537 7.55273 9.09778 7.30367C9.70019 7.0546 10.363 6.98988 11.0022 7.11768C11.6414 7.24548 12.2283 7.56007 12.6887 8.02161C13.149 8.48316 13.462 9.07091 13.5882 9.71046C13.7143 10.35 13.6478 11.0126 13.3972 11.6144C13.1465 12.2161 12.723 12.73 12.1802 13.0909C11.6373 13.4518 10.9996 13.6436 10.3477 13.6419V13.6419ZM13.797 7.70048C13.6064 7.6803 13.43 7.59029 13.3018 7.44779C13.1736 7.3053 13.1026 7.12039 13.1026 6.9287C13.1026 6.73702 13.1736 6.55211 13.3018 6.40961C13.43 6.26711 13.6064 6.17711 13.797 6.15693V6.15693C13.9876 6.17711 14.164 6.26711 14.2923 6.40961C14.4205 6.55211 14.4914 6.73702 14.4914 6.9287C14.4914 7.12039 14.4205 7.3053 14.2923 7.44779C14.164 7.59029 13.9876 7.6803 13.797 7.70048Z" fill="white"/>
</svg>
