<svg width="15" height="14" viewBox="0 0 15 14" fill="none" xmlns="http://www.w3.org/2000/svg">
<path d="M1.8787 12.4282L12.1765 6.4982L11.2103 12.0891C11.188 12.2187 11.1916 12.3514 11.2207 12.4796C11.2498 12.6079 11.304 12.7291 11.3801 12.8365C11.5338 13.0533 11.7676 13.2003 12.03 13.2452C12.2924 13.2901 12.562 13.2292 12.7794 13.0758C12.9967 12.9225 13.1441 12.6893 13.1891 12.4276L14.5227 4.73143C14.528 4.67328 14.529 4.61482 14.5257 4.55653C14.5006 4.51323 14.529 4.46224 14.5213 4.40894C14.5032 4.28698 14.4626 4.16942 14.4016 4.06217C14.339 3.95587 14.2572 3.86204 14.1604 3.7854C14.1353 3.7421 14.0768 3.74112 14.0344 3.70782C13.9855 3.67581 13.9342 3.64743 13.8811 3.62292L6.53185 0.926759C6.39363 0.87601 6.24589 0.856263 6.09914 0.86892C5.95239 0.881577 5.81025 0.926328 5.68281 0.99999C5.4797 1.11642 5.32389 1.30011 5.24241 1.51918C5.19657 1.64251 5.17558 1.77365 5.18063 1.90508C5.18569 2.03652 5.21669 2.16567 5.27186 2.28514C5.32704 2.4046 5.4053 2.51204 5.50216 2.6013C5.59903 2.69055 5.7126 2.75987 5.83637 2.80528L11.1739 4.76615L0.876094 10.6962C0.645812 10.8288 0.477777 11.0472 0.408955 11.3034C0.340133 11.5596 0.376162 11.8325 0.509115 12.0622C0.642069 12.2919 0.861056 12.4595 1.1179 12.5281C1.37475 12.5968 1.64842 12.5608 1.8787 12.4282Z" fill="#00A3FF"/>
</svg>
