<svg width="24" height="24" viewBox="0 0 24 24" fill="none" xmlns="http://www.w3.org/2000/svg">
<path d="M12.0002 10.8001C12.3957 10.8001 12.7824 10.6828 13.1113 10.463C13.4402 10.2433 13.6966 9.93091 13.8479 9.56545C13.9993 9.2 14.0389 8.79787 13.9618 8.40991C13.8846 8.02194 13.6941 7.66558 13.4144 7.38587C13.1347 7.10617 12.7783 6.91569 12.3904 6.83852C12.0024 6.76135 11.6003 6.80095 11.2348 6.95233C10.8694 7.1037 10.557 7.36005 10.3372 7.68895C10.1175 8.01785 10.0002 8.40452 10.0002 8.80009C10.0002 9.33052 10.2109 9.83923 10.586 10.2143C10.961 10.5894 11.4697 10.8001 12.0002 10.8001ZM11.2902 17.7101C11.3831 17.8038 11.4937 17.8782 11.6156 17.929C11.7375 17.9797 11.8682 18.0059 12.0002 18.0059C12.1322 18.0059 12.2629 17.9797 12.3848 17.929C12.5066 17.8782 12.6172 17.8038 12.7102 17.7101L16.8002 13.6101C17.7501 12.6606 18.3972 11.4508 18.6595 10.1335C18.9217 8.81632 18.7875 7.45089 18.2737 6.20998C17.7598 4.96906 16.8896 3.9084 15.7729 3.16215C14.6562 2.41589 13.3433 2.01758 12.0002 2.01758C10.6571 2.01758 9.34418 2.41589 8.22749 3.16215C7.11081 3.9084 6.24052 4.96906 5.7267 6.20998C5.21289 7.45089 5.07863 8.81632 5.34091 10.1335C5.60319 11.4508 6.25023 12.6606 7.20018 13.6101L11.2902 17.7101ZM7.23018 8.34009C7.29851 7.6271 7.5252 6.93838 7.89371 6.3242C8.26221 5.71002 8.76323 5.1859 9.36018 4.79009C10.1444 4.27519 11.062 4.00085 12.0002 4.00085C12.9383 4.00085 13.856 4.27519 14.6402 4.79009C15.2331 5.18454 15.7313 5.70549 16.0989 6.31547C16.4665 6.92546 16.6943 7.60932 16.766 8.31787C16.8378 9.02643 16.7516 9.74208 16.5137 10.4133C16.2758 11.0846 15.8921 11.6948 15.3902 12.2001L12.0002 15.5901L8.61018 12.2001C8.1077 11.6997 7.72311 11.0936 7.48439 10.4259C7.24567 9.75816 7.15882 9.04561 7.23018 8.34009V8.34009ZM19.0002 20.0001H5.00018C4.73497 20.0001 4.48061 20.1054 4.29308 20.293C4.10554 20.4805 4.00018 20.7349 4.00018 21.0001C4.00018 21.2653 4.10554 21.5197 4.29308 21.7072C4.48061 21.8947 4.73497 22.0001 5.00018 22.0001H19.0002C19.2654 22.0001 19.5198 21.8947 19.7073 21.7072C19.8948 21.5197 20.0002 21.2653 20.0002 21.0001C20.0002 20.7349 19.8948 20.4805 19.7073 20.293C19.5198 20.1054 19.2654 20.0001 19.0002 20.0001Z" fill="#05D4F5"/>
</svg>
