<svg width="21" height="26" viewBox="0 0 21 26" fill="none" xmlns="http://www.w3.org/2000/svg">
<path d="M10.5 11.4273C11.0192 11.4273 11.5267 11.2746 11.9584 10.9887C12.3901 10.7028 12.7265 10.2963 12.9252 9.82083C13.1239 9.34532 13.1758 8.82209 13.0746 8.3173C12.9733 7.81251 12.7233 7.34883 12.3562 6.98489C11.989 6.62096 11.5213 6.37312 11.0121 6.27271C10.5029 6.1723 9.97511 6.22383 9.49546 6.42079C9.0158 6.61775 8.60583 6.95129 8.31739 7.37923C8.02895 7.80718 7.875 8.3103 7.875 8.82498C7.875 9.51515 8.15156 10.177 8.64385 10.6651C9.13613 11.1531 9.80381 11.4273 10.5 11.4273ZM9.56812 20.4181C9.69014 20.5401 9.8353 20.6369 9.99524 20.7029C10.1552 20.769 10.3267 20.803 10.5 20.803C10.6733 20.803 10.8448 20.769 11.0048 20.7029C11.1647 20.6369 11.3099 20.5401 11.4319 20.4181L16.8 15.0835C18.0468 13.8481 18.8961 12.2739 19.2403 10.56C19.5845 8.8461 19.4083 7.06949 18.7339 5.45489C18.0596 3.84029 16.9173 2.46022 15.4517 1.48924C13.986 0.518264 12.2628 0 10.5 0C8.7372 0 7.01399 0.518264 5.54834 1.48924C4.08269 2.46022 2.94044 3.84029 2.26606 5.45489C1.59167 7.06949 1.41546 8.8461 1.75971 10.56C2.10395 12.2739 2.95319 13.8481 4.2 15.0835L9.56812 20.4181ZM4.23938 8.22646C4.32905 7.29877 4.62658 6.40264 5.11025 5.60351C5.59392 4.80438 6.2515 4.12242 7.035 3.60742C8.06427 2.93746 9.2687 2.58051 10.5 2.58051C11.7313 2.58051 12.9357 2.93746 13.965 3.60742C14.7433 4.12065 15.3971 4.79848 15.8796 5.59215C16.362 6.38583 16.6611 7.27562 16.7552 8.19756C16.8493 9.11949 16.7362 10.0506 16.424 10.924C16.1117 11.7975 15.6081 12.5914 14.9494 13.2488L10.5 17.6597L6.05062 13.2488C5.39112 12.5978 4.88634 11.8092 4.57302 10.9404C4.2597 10.0716 4.14572 9.14444 4.23938 8.22646V8.22646ZM19.6875 23.3977H1.3125C0.964403 23.3977 0.630564 23.5348 0.384423 23.7788C0.138281 24.0228 0 24.3538 0 24.6989C0 25.0439 0.138281 25.3749 0.384423 25.6189C0.630564 25.8629 0.964403 26 1.3125 26H19.6875C20.0356 26 20.3694 25.8629 20.6156 25.6189C20.8617 25.3749 21 25.0439 21 24.6989C21 24.3538 20.8617 24.0228 20.6156 23.7788C20.3694 23.5348 20.0356 23.3977 19.6875 23.3977Z" fill="#05D4F5"/>
</svg>
