<svg width="24" height="18" viewBox="0 0 24 18" fill="none" xmlns="http://www.w3.org/2000/svg">
<path fill-rule="evenodd" clip-rule="evenodd" d="M3.92803 0H19.6402C20.685 0 21.6827 0.416371 22.4212 1.14699C23.1518 1.88545 23.5682 2.88317 23.5682 3.92803V13.3553C23.5682 14.4002 23.1518 15.3979 22.4212 16.1364C21.6827 16.867 20.685 17.2833 19.6402 17.2833H3.92803C2.88317 17.2833 1.88545 16.867 1.14699 16.1364C0.416371 15.3979 0 14.4002 0 13.3553V3.92803C0 2.88317 0.416371 1.88545 1.14699 1.14699C1.88545 0.416371 2.88317 0 3.92803 0ZM3.92803 1.57121H19.6402C20.2686 1.57121 20.8657 1.82261 21.3056 2.26255C21.7456 2.70249 21.997 3.29955 21.997 3.92803V13.3553C21.997 13.9838 21.7456 14.5809 21.3056 15.0208C20.8657 15.4607 20.2686 15.7121 19.6402 15.7121H3.92803C3.29955 15.7121 2.70249 15.4607 2.26255 15.0208C1.82261 14.5809 1.57121 13.9838 1.57121 13.3553V3.92803C1.57121 3.29955 1.82261 2.70249 2.26255 2.26255C2.70249 1.82261 3.29955 1.57121 3.92803 1.57121Z" fill="#05D4F5"/>
<path d="M22.4294 3.22889C22.618 3.13462 22.8301 3.1189 23.0344 3.18175C23.2308 3.25246 23.3957 3.39387 23.4822 3.57456C23.5764 3.7631 23.5921 3.97521 23.5293 4.17947C23.4586 4.37587 23.3172 4.54085 23.1365 4.62727L13.5442 9.42732C13.5364 9.42732 13.5285 9.43518 13.5207 9.43518C12.9786 9.68657 12.3815 9.81227 11.7845 9.80441C11.1874 9.81227 10.5904 9.68657 10.0483 9.43518C10.0404 9.43518 10.0326 9.42732 10.0247 9.42732L0.432465 4.62727C0.251776 4.54085 0.110367 4.37587 0.0396622 4.17947C-0.0231863 3.97521 -0.00747412 3.7631 0.0867986 3.57456C0.173215 3.39387 0.338193 3.25246 0.534594 3.18175C0.738852 3.1189 0.950965 3.13462 1.13951 3.22889L10.7239 8.01323C11.0539 8.17035 11.4152 8.24106 11.7845 8.2332C12.1537 8.24106 12.5151 8.17035 12.845 8.01323L22.4294 3.22889ZM7.85644 12.5697C8.06856 12.5697 8.26496 12.6562 8.41422 12.7976C8.55563 12.9468 8.64205 13.1432 8.64205 13.3554C8.64205 13.5675 8.55563 13.7639 8.41422 13.9131C8.26496 14.0545 8.06856 14.141 7.85644 14.141H3.92841C3.7163 14.141 3.5199 14.0545 3.37063 13.9131C3.22922 13.7639 3.14281 13.5675 3.14281 13.3554C3.14281 13.1432 3.22922 12.9468 3.37063 12.7976C3.5199 12.6562 3.7163 12.5697 3.92841 12.5697H7.85644Z" fill="#05D4F5"/>
</svg>
