<svg width="12" height="12" viewBox="0 0 12 12" fill="none" xmlns="http://www.w3.org/2000/svg">
<path d="M11.8533 11.1639L9.79089 9.1475L9.74255 9.07398C9.65267 8.9845 9.52978 8.93409 9.4015 8.93409C9.27322 8.93409 9.15033 8.9845 9.06045 9.07398C7.30769 10.682 4.60689 10.7694 2.7492 9.27823C0.891517 7.78706 0.453401 5.18002 1.72541 3.1861C2.99742 1.19218 5.58484 0.430108 7.77171 1.40528C9.95858 2.38046 11.0663 4.79027 10.3602 7.03656C10.3094 7.19883 10.3509 7.37531 10.4692 7.4995C10.5876 7.62369 10.7647 7.67674 10.9338 7.63865C11.103 7.60057 11.2385 7.47714 11.2894 7.31486C12.1334 4.64919 10.8586 1.78053 8.28967 0.564635C5.7207 -0.651263 2.6285 0.150494 1.01343 2.45125C-0.601638 4.75201 -0.254893 7.86129 1.82936 9.7677C3.91361 11.6741 7.10987 11.8055 9.35048 10.0769L11.1766 11.8623C11.3652 12.0459 11.6701 12.0459 11.8587 11.8623C12.0471 11.6761 12.0471 11.3764 11.8587 11.1902L11.8533 11.1639Z" fill="#575757"/>
</svg>
