<svg width="21" height="21" viewBox="0 0 21 21" fill="none" xmlns="http://www.w3.org/2000/svg">
<path d="M9.58155 1.13274C9.92863 0.326781 11.0714 0.326779 11.4185 1.13274L13.6449 6.30279C13.7897 6.63897 14.1066 6.86919 14.471 6.90299L20.076 7.42284C20.9498 7.50388 21.3029 8.59069 20.6437 9.16984L16.4147 12.885C16.1397 13.1265 16.0187 13.499 16.0991 13.8561L17.3368 19.3474C17.5297 20.2035 16.6052 20.8752 15.8507 20.4271L11.0106 17.5532C10.6958 17.3663 10.3042 17.3663 9.98944 17.5532L5.14932 20.4271C4.39479 20.8752 3.4703 20.2035 3.66323 19.3474L4.90087 13.8561C4.98135 13.499 4.86032 13.1265 4.58533 12.885L0.356335 9.16984C-0.302927 8.59069 0.0501983 7.50388 0.92397 7.42284L6.52899 6.90299C6.89345 6.86919 7.21032 6.63897 7.35509 6.30279L9.58155 1.13274Z" fill="#FFC727"/>
</svg>
