<svg width="49" height="47" viewBox="0 0 49 47" fill="none" xmlns="http://www.w3.org/2000/svg">
<path fill-rule="evenodd" clip-rule="evenodd" d="M40.9915 2.89535L42.0244 4.28431C42.2955 4.6509 42.2277 5.17634 41.8688 5.45332L40.7722 6.30462C40.9716 6.84635 41.0992 7.42475 41.151 8.01536L42.3992 8.19051C42.8459 8.25161 43.1569 8.67522 43.0971 9.13142L42.8658 10.8625C42.806 11.3187 42.3913 11.6405 41.9446 11.5753L40.5808 11.3839C40.3375 11.9256 40.0264 12.4226 39.6596 12.8665L40.4252 13.893C40.6964 14.2596 40.6246 14.785 40.2657 15.062L38.9059 16.117C38.547 16.3939 38.0325 16.3206 37.7613 15.9581L36.9279 14.838C36.3935 15.0416 35.8312 15.172 35.249 15.2249L35.0775 16.4998C35.0177 16.956 34.603 17.2738 34.1563 17.2127L32.4615 16.9764C32.0148 16.9153 31.7038 16.4917 31.7636 16.0355L31.951 14.6425C31.4246 14.394 30.9341 14.0763 30.4994 13.7056L29.4945 14.4836C29.1356 14.7606 28.6212 14.6913 28.35 14.3248L27.3171 12.9358C27.046 12.5692 27.1137 12.0438 27.4727 11.7668L28.5693 10.9155C28.3699 10.3697 28.2423 9.79535 28.1905 9.20474L26.9423 9.02959C26.4956 8.96849 26.1806 8.54488 26.2444 8.08868L26.4757 6.35757C26.5395 5.90137 26.9502 5.58366 27.3969 5.64476L28.7607 5.8362C29.004 5.29854 29.315 4.79753 29.6779 4.35355L28.9163 3.32711C28.6451 2.96459 28.7129 2.43915 29.0718 2.16217L30.4316 1.10721C30.7906 0.830231 31.305 0.899475 31.5762 1.26606L32.4096 2.38619C32.94 2.18253 33.5063 2.05219 34.0845 1.99924L34.256 0.724328C34.3158 0.268129 34.7306 -0.0536544 35.1772 0.00744364L36.872 0.243689C37.3187 0.304788 37.6337 0.728401 37.5699 1.1846L37.3825 2.57764C37.9129 2.8261 38.3994 3.14381 38.8381 3.51855L39.843 2.74056C40.2019 2.45951 40.7163 2.52876 40.9915 2.89535ZM12.1952 22.8459H36.4972C36.9598 22.8459 37.3825 23.0414 37.6896 23.3551L37.6935 23.3591L37.6975 23.3632C38.0046 23.6768 38.192 24.1086 38.192 24.5811V45.2689C38.192 45.7455 38.0006 46.1772 37.6935 46.4908C37.3865 46.8045 36.9638 47 36.4972 47H12.1952C11.7326 47 11.3098 46.8086 10.9988 46.4908L10.9948 46.4868L10.9908 46.4827C10.6838 46.1691 10.4963 45.7373 10.4963 45.2648V24.5729C10.5003 24.0964 10.6917 23.6646 10.9948 23.351C11.0147 23.3347 11.0307 23.3143 11.0506 23.298C11.3577 23.021 11.7565 22.8459 12.1952 22.8459ZM14.9388 42.4462C14.5879 42.4462 14.3007 42.1244 14.3007 41.7333C14.3007 41.3382 14.5879 41.0165 14.9388 41.0165H22.2964C22.6473 41.0165 22.9345 41.3382 22.9345 41.7333C22.9345 42.1284 22.6473 42.4502 22.2964 42.4502H14.9388V42.4462ZM25.3272 42.4462C24.9723 42.4462 24.6812 42.1244 24.6812 41.7333C24.6812 41.3382 24.9683 41.0165 25.3272 41.0165H33.263C33.618 41.0165 33.9091 41.3382 33.9091 41.7333C33.9091 42.1284 33.6219 42.4502 33.263 42.4502H25.3272V42.4462ZM14.4642 30.8497H33.8293V38.5929H14.4642V30.8497ZM36.6647 29.0453C36.6089 29.0535 36.557 29.0575 36.5012 29.0575H12.1952C12.1393 29.0575 12.0835 29.0535 12.0316 29.0453V45.2648C12.0316 45.3096 12.0516 45.3504 12.0755 45.3829L12.0795 45.387C12.1074 45.4155 12.1473 45.4318 12.1952 45.4318H36.4972C36.5411 45.4318 36.5809 45.4155 36.6128 45.3829C36.6408 45.3504 36.6647 45.3096 36.6647 45.2648V29.0453ZM21.7979 25.078C22.4041 25.078 22.8986 25.5831 22.8986 26.2022C22.8986 26.8213 22.4041 27.3264 21.7979 27.3264C21.1918 27.3264 20.6973 26.8213 20.6973 26.2022C20.6973 25.5831 21.1918 25.078 21.7979 25.078ZM17.9496 25.078C18.5598 25.078 19.0503 25.5831 19.0503 26.2022C19.0503 26.8213 18.5558 27.3264 17.9496 27.3264C17.3435 27.3264 16.849 26.8213 16.849 26.2022C16.849 25.5831 17.3435 25.078 17.9496 25.078ZM14.1053 25.078C14.7155 25.078 15.206 25.5831 15.206 26.2022C15.206 26.8213 14.7115 27.3264 14.1053 27.3264C13.4992 27.3264 13.0047 26.8213 13.0047 26.2022C13.0047 25.5831 13.4992 25.078 14.1053 25.078ZM24.1388 4.66719C23.409 4.61016 22.6713 4.61831 21.9415 4.69163C19.6963 4.91158 17.515 5.74659 15.7124 7.17628C13.6268 8.82593 12.0436 11.2943 11.4335 14.5651L11.2421 15.5874L10.2451 15.7667C9.26806 15.9418 8.39472 16.1821 7.62905 16.4876C6.88731 16.7809 6.22532 17.1434 5.64708 17.5711C5.18449 17.9132 4.7857 18.2961 4.44673 18.7116C3.39793 19.9947 2.91141 21.6036 2.92337 23.2329C2.93533 24.8866 3.46173 26.5566 4.43477 27.9293C4.79767 28.4384 5.21639 28.9068 5.69493 29.3141C6.18145 29.7255 6.72779 30.0677 7.34192 30.3243C7.68887 30.4709 8.05974 30.5931 8.44656 30.6909V33.7417C7.64899 33.5951 6.91522 33.3751 6.22931 33.0859C5.32406 32.7031 4.5225 32.2102 3.81665 31.6074C3.14669 31.0371 2.56047 30.3895 2.06199 29.6848C0.734033 27.8111 0.0162172 25.522 0.000265726 23.241C-0.0156857 20.9356 0.686178 18.6424 2.20157 16.785C2.69207 16.1821 3.27031 15.6282 3.9323 15.1394C4.70196 14.5691 5.58327 14.0885 6.58024 13.6934C7.26615 13.4205 7.99992 13.1924 8.77356 13.0091C9.65089 9.44913 11.5212 6.70786 13.9259 4.80568C16.175 3.02569 18.8828 1.98702 21.6703 1.71412C23.1339 1.57155 24.6173 1.63673 26.0689 1.9137C26.037 2.04812 26.0091 2.18253 25.9932 2.32102L25.9892 2.34546C25.9613 2.57764 25.9493 2.80981 25.9613 3.04605C25.6542 3.16825 25.3671 3.33525 25.1079 3.53891L25.0959 3.54706C24.7091 3.8444 24.3821 4.22728 24.1388 4.66719ZM45.2386 12.4877C45.4619 12.6955 45.6773 12.9114 45.8886 13.1435C46.3153 13.6119 46.7181 14.1415 47.0969 14.7321C48.373 16.7361 49.0271 19.4122 48.9991 22.0313C48.9712 24.6015 48.2933 27.1594 46.9055 29.0412C46.0003 30.2673 44.8398 31.2693 43.448 32.0636C42.4949 32.6094 41.4222 33.0615 40.2538 33.4281V30.2714C40.8838 30.031 41.4701 29.7622 42.0084 29.4567C43.0572 28.8579 43.9146 28.1288 44.5567 27.2531C45.5536 25.8967 46.0441 23.9783 46.0641 22.0109C46.088 19.9458 45.5935 17.8725 44.6324 16.3654C44.3573 15.9296 44.0542 15.5386 43.7352 15.1883C43.6115 15.0539 43.4879 14.9276 43.3603 14.8054C43.3802 14.6017 43.3882 14.394 43.3763 14.1863C43.6833 14.0641 43.9704 13.8971 44.2297 13.6934L44.2416 13.6853C44.6524 13.3635 44.9953 12.9562 45.2386 12.4877ZM35.1254 5.213C36.9638 5.46961 38.2479 7.20072 37.9966 9.07847C37.7454 10.9562 36.0505 12.2719 34.2121 12.0152C32.3737 11.7586 31.0857 10.0275 31.3409 8.14978C31.5961 6.27203 33.287 4.95639 35.1254 5.213Z" fill="black"/>
<path fill-rule="evenodd" clip-rule="evenodd" d="M40.9914 2.89535L42.0242 4.28431C42.2954 4.6509 42.2276 5.17634 41.8687 5.45332L40.772 6.30462C40.9714 6.84635 41.0991 7.42475 41.1509 8.01536L42.3991 8.19051C42.8457 8.25161 43.1568 8.67522 43.097 9.13142L42.8657 10.8625C42.8059 11.3187 42.3911 11.6405 41.9445 11.5753L40.5806 11.3839C40.3374 11.9256 40.0263 12.4226 39.6594 12.8665L40.4251 13.893C40.6963 14.2596 40.6245 14.785 40.2656 15.062L38.9057 16.117C38.5468 16.3939 38.0324 16.3206 37.7612 15.9581L36.9277 14.838C36.3934 15.0416 35.8311 15.172 35.2489 15.2249L35.0774 16.4998C35.0176 16.956 34.6028 17.2738 34.1562 17.2127L32.4613 16.9764C32.0147 16.9153 31.7036 16.4917 31.7635 16.0355L31.9509 14.6425C31.4245 14.394 30.934 14.0763 30.4993 13.7056L29.4944 14.4836C29.1355 14.7606 28.621 14.6913 28.3499 14.3248L27.317 12.9358C27.0458 12.5692 27.1136 12.0438 27.4725 11.7668L28.5692 10.9155C28.3698 10.3697 28.2422 9.79535 28.1903 9.20474L26.9421 9.02959C26.4955 8.96849 26.1805 8.54488 26.2443 8.08868L26.4756 6.35757C26.5394 5.90137 26.9501 5.58366 27.3968 5.64476L28.7606 5.8362C29.0039 5.29854 29.3149 4.79753 29.6778 4.35355L28.9161 3.32711C28.645 2.96459 28.7127 2.43915 29.0717 2.16217L30.4315 1.10721C30.7904 0.830231 31.3049 0.899475 31.576 1.26606L32.4095 2.38619C32.9399 2.18253 33.5062 2.05219 34.0844 1.99924L34.2559 0.724328C34.3157 0.268129 34.7304 -0.0536544 35.1771 0.00744364L36.8719 0.243689C37.3186 0.304788 37.6336 0.728401 37.5698 1.1846L37.3824 2.57764C37.9128 2.8261 38.3993 3.14381 38.8379 3.51855L39.8429 2.74056C40.2018 2.45951 40.7162 2.52876 40.9914 2.89535ZM35.1252 5.213C36.9636 5.46961 38.2477 7.20072 37.9965 9.07847C37.7453 10.9562 36.0504 12.2719 34.212 12.0152C32.3736 11.7586 31.0855 10.0275 31.3407 8.14978C31.596 6.27203 33.2868 4.95639 35.1252 5.213Z" fill="#05D4F5"/>
</svg>
