<svg width="17" height="17" viewBox="0 0 17 17" fill="none" xmlns="http://www.w3.org/2000/svg">
<rect width="16.4348" height="16.4348" rx="2" fill="white"/>
<g clip-path="url(#clip0_1_65)">
<path d="M14.6085 4.81916C14.151 5.01422 13.6671 5.14317 13.172 5.20199C13.6943 4.89532 14.0858 4.41286 14.2737 3.84412C13.7828 4.13129 13.2455 4.33361 12.685 4.4423C12.3104 4.04306 11.8115 3.7773 11.2666 3.68671C10.7217 3.59612 10.1617 3.68582 9.67427 3.94174C9.18685 4.19766 8.79966 4.60533 8.57341 5.1008C8.34717 5.59628 8.29466 6.15154 8.42414 6.6795C7.43161 6.63017 6.46075 6.3762 5.57462 5.93408C4.68849 5.49197 3.90691 4.87161 3.28066 4.1133C3.061 4.49026 2.94558 4.91715 2.94587 5.35154C2.9451 5.75494 3.04583 6.15227 3.23912 6.50816C3.4324 6.86405 3.71223 7.16744 4.0537 7.39134C3.65682 7.38073 3.26841 7.27607 2.92153 7.08627V7.11617C2.9245 7.68139 3.12605 8.22825 3.49207 8.66425C3.85809 9.10025 4.36612 9.39862 4.93022 9.5089C4.71307 9.57384 4.48762 9.60808 4.26066 9.61059C4.10355 9.60879 3.94683 9.59479 3.79196 9.56872C3.9526 10.0549 4.26347 10.4798 4.68131 10.7843C5.09915 11.0888 5.60318 11.2577 6.12327 11.2676C5.24504 11.9467 4.16076 12.3173 3.04327 12.3204C2.8398 12.321 2.6365 12.309 2.43457 12.2845C3.57553 13.0084 4.90515 13.3927 6.26327 13.3911C7.20047 13.4007 8.13022 13.2266 8.99821 12.8791C9.86619 12.5316 10.655 12.0176 11.3186 11.3672C11.9822 10.7167 12.5072 9.94282 12.8631 9.09072C13.2189 8.23862 13.3984 7.32538 13.3911 6.40434C13.3911 6.30265 13.3911 6.19497 13.3911 6.0873C13.8687 5.73725 14.2807 5.30813 14.6085 4.81916V4.81916Z" fill="#003F3A"/>
</g>
<defs>
<clipPath id="clip0_1_65">
<rect width="10.9565" height="10.9565" fill="white" transform="translate(3.04346 3.04346)"/>
</clipPath>
</defs>
</svg>
